<svg xmlns="http://www.w3.org/2000/svg" width="120" height="120" fill="none"><rect id="backgroundrect" width="100%" height="100%" x="0" y="0" fill="none" stroke="none"/>





<g class="currentLayer" style=""><title>Layer 1</title><path d="M14 14H106V106H14V14Z" fill="#d1d2d6" stroke="#d1d2d6" id="svg_1" class="" opacity="1" fill-opacity="1" stroke-opacity="1" stroke-width="1"/><path d="M38.1911 90.8823L45.2315 86.6215C46.5898 89.0298 47.8254 91.0673 50.7891 91.0673C53.63 91.0673 55.4211 89.956 55.4211 85.6335V56.2373H64.0667V85.7557C64.0667 94.7104 58.8178 98.7863 51.1597 98.7863C44.2435 98.7863 40.2288 95.2043 38.1909 90.8816" fill="#F5F6F7" id="svg_2"/><path d="M38.1911 90.8823L45.2315 86.6215C46.5898 89.0298 47.8254 91.0673 50.7891 91.0673C53.63 91.0673 55.4211 89.956 55.4211 85.6335V56.2373H64.0667V85.7557C64.0667 94.7104 58.8178 98.7863 51.1597 98.7863C44.2435 98.7863 40.2288 95.2043 38.1909 90.8816" stroke="#d1d2d6" id="svg_3" class="" stroke-opacity="1"/><path d="M68.7603 89.9541L75.7999 85.8782C77.653 88.9046 80.0615 91.1276 84.3224 91.1276C87.9047 91.1276 90.1891 89.3365 90.1891 86.8663C90.1891 83.902 87.8425 82.852 83.89 81.1234L81.7292 80.1964C75.4914 77.5414 71.3536 74.2066 71.3536 67.1663C71.3536 60.6819 76.294 55.7412 84.0139 55.7412C89.5102 55.7412 93.4625 57.6558 96.303 62.6582L89.5715 66.9808C88.0893 64.3255 86.4841 63.2759 84.014 63.2759C81.482 63.2759 79.8762 64.8815 79.8762 66.9808C79.8762 69.5747 81.482 70.6248 85.1869 72.2305L87.3482 73.1568C94.6972 76.3066 98.8351 79.5175 98.8351 86.7427C98.8351 94.5245 92.7213 98.7852 84.5079 98.7852C76.4796 98.7852 71.292 94.9566 68.7604 89.9541" fill="#F5F6F7" id="svg_4"/><path d="M68.7603 89.9541L75.7999 85.8782C77.653 88.9046 80.0615 91.1276 84.3224 91.1276C87.9047 91.1276 90.1891 89.3365 90.1891 86.8663C90.1891 83.902 87.8425 82.852 83.89 81.1234L81.7292 80.1964C75.4914 77.5414 71.3536 74.2066 71.3536 67.1663C71.3536 60.6819 76.294 55.7412 84.0139 55.7412C89.5102 55.7412 93.4625 57.6558 96.303 62.6582L89.5715 66.9808C88.0893 64.3255 86.4841 63.2759 84.014 63.2759C81.482 63.2759 79.8762 64.8815 79.8762 66.9808C79.8762 69.5747 81.482 70.6248 85.1869 72.2305L87.3482 73.1568C94.6972 76.3066 98.8351 79.5175 98.8351 86.7427C98.8351 94.5245 92.7213 98.7852 84.5079 98.7852C76.4796 98.7852 71.292 94.9566 68.7604 89.9541" stroke="#d1d2d6" id="svg_5" class="" stroke-opacity="1"/></g></svg>