<svg xmlns="http://www.w3.org/2000/svg" width="120" height="120" fill="none"><rect id="backgroundrect" width="100%" height="100%" x="0" y="0" fill="none" stroke="none"/>


<g class="currentLayer" style=""><title>Layer 1</title><path d="M101.829 86.803L61.6847 109.514V91.8294L86.6979 78.0662L101.829 86.803ZM104.579 84.3162V36.8294L89.8952 45.3162V75.8425L104.579 84.3162ZM18.0137 86.803L58.1584 109.514V91.8294L33.1321 78.0662L18.0137 86.803ZM15.2637 84.3162V36.8294L29.9479 45.3162V75.8425L15.2637 84.3162ZM16.9874 33.7504L58.1584 10.4609V27.553L31.7768 42.0662L31.5663 42.1846L16.9874 33.7504ZM102.856 33.7504L61.6847 10.4609V27.553L88.0663 42.053L88.2768 42.1715L102.856 33.7504Z" fill="#d1d2d6" stroke="#d1d2d6" id="svg_1" class="" fill-opacity="1" stroke-opacity="1"/><path d="M58.1574 87.8024L33.4731 74.2234V47.3418L58.1574 61.5918V87.8024ZM61.6837 87.8024L86.3679 74.2366V47.3418L61.6837 61.5918V87.8024ZM35.1442 44.2366L59.9205 30.6182L84.6968 44.2366L59.9205 58.5392L35.1442 44.2366Z" fill="#d1d2d6" stroke="#d1d2d6" id="svg_2" class="selected" stroke-opacity="1" fill-opacity="1"/></g></svg>