<svg xmlns="http://www.w3.org/2000/svg" width="120" height="120" fill="none"><rect width="100%" height="100%"/><g class="currentLayer"><path d="M14 14h92v92H14V14z" fill="#d1d2d6" stroke="#d1d2d6"/><path d="M38.191 90.882l7.04-4.26c1.359 2.408 2.594 4.445 5.558 4.445 2.841 0 4.632-1.111 4.632-5.433V56.236h8.646v29.519c0 8.954-5.25 13.03-12.907 13.03-6.916 0-10.931-3.582-12.97-7.904" fill="#F5F6F7"/><path d="M38.191 90.882l7.04-4.26c1.359 2.408 2.594 4.445 5.558 4.445 2.841 0 4.632-1.111 4.632-5.433V56.236h8.646v29.519c0 8.954-5.25 13.03-12.907 13.03-6.916 0-10.931-3.582-12.97-7.904" stroke="#d1d2d6"/><path d="M68.76 89.954l7.04-4.076c1.853 3.027 4.261 5.25 8.522 5.25 3.583 0 5.867-1.791 5.867-4.262 0-2.964-2.346-4.014-6.299-5.743l-2.16-.927c-6.239-2.655-10.376-5.99-10.376-13.03 0-6.484 4.94-11.425 12.66-11.425 5.496 0 9.449 1.915 12.289 6.917l-6.731 4.323c-1.483-2.655-3.088-3.705-5.558-3.705-2.532 0-4.138 1.605-4.138 3.705 0 2.594 1.606 3.644 5.31 5.25l2.162.926c7.35 3.15 11.487 6.36 11.487 13.586 0 7.782-6.114 12.042-14.327 12.042-8.028 0-13.216-3.828-15.748-8.83" fill="#F5F6F7"/><path d="M68.76 89.954l7.04-4.076c1.853 3.027 4.261 5.25 8.522 5.25 3.583 0 5.867-1.791 5.867-4.262 0-2.964-2.346-4.014-6.299-5.743l-2.16-.927c-6.239-2.655-10.376-5.99-10.376-13.03 0-6.484 4.94-11.425 12.66-11.425 5.496 0 9.449 1.915 12.289 6.917l-6.731 4.323c-1.483-2.655-3.088-3.705-5.558-3.705-2.532 0-4.138 1.605-4.138 3.705 0 2.594 1.606 3.644 5.31 5.25l2.162.926c7.35 3.15 11.487 6.36 11.487 13.586 0 7.782-6.114 12.042-14.327 12.042-8.028 0-13.216-3.828-15.748-8.83" stroke="#d1d2d6"/></g></svg>