<svg xmlns="http://www.w3.org/2000/svg" width="120" height="120" fill="none"><rect width="100%" height="100%"/><g class="currentLayer"><path d="M101.829 86.803l-40.144 22.711V91.829l25.013-13.763 15.131 8.737zm2.75-2.487V36.83l-14.684 8.487v30.526l14.684 8.474zm-86.565 2.487l40.144 22.711V91.829L33.132 78.066l-15.118 8.737zm-2.75-2.487V36.83l14.684 8.487v30.526l-14.684 8.474zm1.723-50.566l41.171-23.29v17.093L31.777 42.066l-.21.119-14.58-8.435zm85.869 0L61.685 10.46v17.093l26.381 14.5.21.119 14.58-8.422z" fill="#d1d2d6" stroke="#d1d2d6"/><path d="M58.157 87.802L33.473 74.223V47.342l24.684 14.25v26.21zm3.527 0l24.684-13.565V47.342l-24.684 14.25v26.21zm-26.54-43.565L59.92 30.618l24.777 13.619L59.92 58.539 35.144 44.237z" fill="#d1d2d6" stroke="#d1d2d6" class="selected"/></g></svg>